REM DIRINDEX 1\3,1\4,1\5,1\6,1\2\7,1\2\8,1\2\9,1\10
REM DIRNAME folder01,folder02,folder03,folder04,folder05,folder06,folder07,folder08,folder09,folder10
TITLE ""
FILE "1-24 Level 2-202-212.mp3" MP3
  TRACK 01 AUDIO
    TITLE "0:"
    INDEX 01 00:00:00
  TRACK 02 AUDIO
    TITLE "7:cjc056_0699"
    INDEX 01 00:00:05
  TRACK 03 AUDIO
    TITLE "0:"
    INDEX 01 00:01:21
  TRACK 04 AUDIO
    TITLE "8:cjc056_0700"
    INDEX 01 00:01:30
  TRACK 05 AUDIO
    TITLE "0:"
    INDEX 01 00:03:29
  TRACK 06 AUDIO
    TITLE "9:cjc056_0701"
    INDEX 01 00:03:43
  TRACK 07 AUDIO
    TITLE "0:"
    INDEX 01 00:08:03
  TRACK 08 AUDIO
    TITLE "7:cjc056_0702"
    INDEX 01 00:08:52
  TRACK 09 AUDIO
    TITLE "0:"
    INDEX 01 00:10:23
  TRACK 10 AUDIO
    TITLE "8:cjc056_0703"
    INDEX 01 00:10:37
  TRACK 11 AUDIO
    TITLE "0:"
    INDEX 01 00:12:40
  TRACK 12 AUDIO
    TITLE "9:cjc056_0704"
    INDEX 01 00:12:56
  TRACK 13 AUDIO
    TITLE "0:"
    INDEX 01 00:15:13
  TRACK 14 AUDIO
    TITLE "7:cjc056_0705"
    INDEX 01 00:15:66
  TRACK 15 AUDIO
    TITLE "0:"
    INDEX 01 00:16:71
  TRACK 16 AUDIO
    TITLE "8:cjc056_0706"
    INDEX 01 00:17:08
  TRACK 17 AUDIO
    TITLE "0:"
    INDEX 01 00:18:39
  TRACK 18 AUDIO
    TITLE "9:cjc056_0707"
    INDEX 01 00:18:50
  TRACK 19 AUDIO
    TITLE "0:"
    INDEX 01 00:20:28
  TRACK 20 AUDIO
    TITLE "7:cjc056_0708"
    INDEX 01 00:21:08
  TRACK 21 AUDIO
    TITLE "0:"
    INDEX 01 00:22:05
  TRACK 22 AUDIO
    TITLE "8:cjc056_0709"
    INDEX 01 00:22:19
  TRACK 23 AUDIO
    TITLE "0:"
    INDEX 01 00:23:71
  TRACK 24 AUDIO
    TITLE "9:cjc056_0710"
    INDEX 01 00:24:10
  TRACK 25 AUDIO
    TITLE "0:"
    INDEX 01 00:26:20
  TRACK 26 AUDIO
    TITLE "7:cjc056_0711"
    INDEX 01 00:26:73
  TRACK 27 AUDIO
    TITLE "0:"
    INDEX 01 00:28:06
  TRACK 28 AUDIO
    TITLE "8:cjc056_0712"
    INDEX 01 00:28:19
  TRACK 29 AUDIO
    TITLE "0:"
    INDEX 01 00:30:06
  TRACK 30 AUDIO
    TITLE "9:cjc056_0713"
    INDEX 01 00:30:20
  TRACK 31 AUDIO
    TITLE "0:"
    INDEX 01 00:32:47
  TRACK 32 AUDIO
    TITLE "7:cjc056_0714"
    INDEX 01 00:33:22
  TRACK 33 AUDIO
    TITLE "0:"
    INDEX 01 00:34:32
  TRACK 34 AUDIO
    TITLE "8:cjc056_0715"
    INDEX 01 00:34:42
  TRACK 35 AUDIO
    TITLE "0:"
    INDEX 01 00:36:21
  TRACK 36 AUDIO
    TITLE "9:cjc056_0716"
    INDEX 01 00:36:29
  TRACK 37 AUDIO
    TITLE "0:"
    INDEX 01 00:38:08
  TRACK 38 AUDIO
    TITLE "7:cjc056_0717"
    INDEX 01 00:38:59
  TRACK 39 AUDIO
    TITLE "0:"
    INDEX 01 00:40:01
  TRACK 40 AUDIO
    TITLE "8:cjc056_0718"
    INDEX 01 00:40:15
  TRACK 41 AUDIO
    TITLE "0:"
    INDEX 01 00:41:57
  TRACK 42 AUDIO
    TITLE "9:cjc056_0719"
    INDEX 01 00:41:71
  TRACK 43 AUDIO
    TITLE "0:"
    INDEX 01 00:44:60
  TRACK 44 AUDIO
    TITLE "7:cjc056_0720"
    INDEX 01 00:45:37
  TRACK 45 AUDIO
    TITLE "0:"
    INDEX 01 00:46:37
  TRACK 46 AUDIO
    TITLE "8:cjc056_0721"
    INDEX 01 00:46:53
  TRACK 47 AUDIO
    TITLE "0:"
    INDEX 01 00:48:22
  TRACK 48 AUDIO
    TITLE "9:cjc056_0722"
    INDEX 01 00:48:34
  TRACK 49 AUDIO
    TITLE "0:"
    INDEX 01 00:51:26
  TRACK 50 AUDIO
    TITLE "7:cjc056_0723"
    INDEX 01 00:52:06
  TRACK 51 AUDIO
    TITLE "0:"
    INDEX 01 00:53:06
  TRACK 52 AUDIO
    TITLE "8:cjc056_0724"
    INDEX 01 00:53:19
  TRACK 53 AUDIO
    TITLE "0:"
    INDEX 01 00:54:30
  TRACK 54 AUDIO
    TITLE "9:cjc056_0725"
    INDEX 01 00:54:46
  TRACK 55 AUDIO
    TITLE "0:"
    INDEX 01 00:56:10
  TRACK 56 AUDIO
    TITLE "7:cjc056_0726"
    INDEX 01 00:56:59
  TRACK 57 AUDIO
    TITLE "0:"
    INDEX 01 00:57:52
  TRACK 58 AUDIO
    TITLE "8:cjc056_0727"
    INDEX 01 00:57:68
  TRACK 59 AUDIO
    TITLE "0:"
    INDEX 01 00:59:14
  TRACK 60 AUDIO
    TITLE "9:cjc056_0728"
    INDEX 01 00:59:30
  TRACK 61 AUDIO
    TITLE "0:"
    INDEX 01 01:00:53
  TRACK 62 AUDIO
    TITLE "7:cjc056_0729"
    INDEX 01 01:01:29
  TRACK 63 AUDIO
    TITLE "0:"
    INDEX 01 01:02:36
  TRACK 64 AUDIO
    TITLE "8:cjc056_0730"
    INDEX 01 01:02:50
  TRACK 65 AUDIO
    TITLE "0:"
    INDEX 01 01:04:17
  TRACK 66 AUDIO
    TITLE "9:cjc056_0731"
    INDEX 01 01:04:29
  TRACK 67 AUDIO
    TITLE "0:"
    INDEX 01 01:05:56
  TRACK 68 AUDIO
    TITLE "7:cjc056_0732"
    INDEX 01 01:06:34
  TRACK 69 AUDIO
    TITLE "0:"
    INDEX 01 01:07:31
  TRACK 70 AUDIO
    TITLE "8:cjc056_0733"
    INDEX 01 01:07:47
  TRACK 71 AUDIO
    TITLE "0:"
    INDEX 01 01:09:05
  TRACK 72 AUDIO
    TITLE "9:cjc056_0734"
    INDEX 01 01:09:16
  TRACK 73 AUDIO
    TITLE "0:"
    INDEX 01 01:11:29
